<svg xmlns="http://www.w3.org/2000/svg" xmlns:xlink="http://www.w3.org/1999/xlink" version="1.1" x="0px" y="0px" viewBox="194 -104 1000 1250" style="enable-background:new 194 -104 1000 1000;" xml:space="preserve"><g><path d="M707.4,449.8c4.6-3,4.3-11.6-0.7-19.2c-5-7.6-10.2-7.2-14.8-4.2c-4.6,3.1-6.9,7.7-1.9,15.2   C695,449.2,702.8,452.9,707.4,449.8z"/><path d="M707.7,526.2c5,7.6,12.8,11.2,17.4,8.2c4.6-3,4.3-11.6-0.7-19.2c-5-7.6-10.2-7.2-14.8-4.2   C704.9,514,702.6,518.6,707.7,526.2z"/><path d="M679.6,563.7c4.6-3,4.3-11.7-0.7-19.2c-5-7.6-10.2-7.2-14.8-4.2s-6.9,7.7-1.9,15.2C667.2,563.1,675,566.8,679.6,563.7z"/><path d="M691.3,494.6c4.6-3,4.3-11.6-0.7-19.2c-5-7.6-10.2-7.2-14.8-4.2c-4.6,3-6.9,7.7-1.9,15.2   C678.9,494,686.7,497.6,691.3,494.6z"/><path d="M694,53.6c-188.8,0-342.4,153.6-342.4,342.4S505.2,738.4,694,738.4s342.4-153.6,342.4-342.4S882.8,53.6,694,53.6z    M414.4,253.9c32.2,26.5,76.1,73.2,94.5,97.2c6.6,8.6,11.9,15.5,14.6,18.5c10.9,11.7,63.2,26.7,97.9,36.6   c9.8,2.8,33.2,7.3,38.1,6.1c8.5-2.1,13.7-11,10.8-19.3c-1.5-4.2-4.5-6.6-10.5-8.7c-7.1-2.5-13.9-4.6-20.4-6.6   c-23.3-7.2-45.2-14-67.4-34.1c-0.5-0.5-1-1.1-1.4-1.7c-0.1-0.2-9.7-16.5-18.5-33.2c-9-17.1-3.6-33.3,1.7-29.8   c7.4,4.9,40,29.8,51.6,40.1c24.2,21.5,31.6,15.6,36.5,11.6c1.5-1.2,1.8-2.2,1.9-3.1c0.9-8.1-13.1-25.3-18.4-31.7   c-11.3-13.8-19.2-24.4-28.4-36.6c-11.7-15.6-26.4-35.1-54-69.2c-15.4-19.1-31.5-30-48-36.3c54.2-44.6,123.6-71.4,199.1-71.4   c173,0,313.7,140.7,313.7,313.7c0,42.6-8.5,83.2-24,120.2H796.2c0,0.4,0,0.7,0,1.1c0,56.5-45.8,102.2-102.2,102.2   s-102.2-45.8-102.2-102.2c0-0.4,0-0.7,0-1.1H404.3c-15.4-37-24-77.7-24-120.2C380.3,344.9,392.6,296.6,414.4,253.9z"/></g><text x="194" y="911" fill="#000000" font-size="5px" font-weight="bold" font-family="'Helvetica Neue', Helvetica, Arial-Unicode, Arial, Sans-serif">Created by Serhii Smirnov</text><text x="194" y="916" fill="#000000" font-size="5px" font-weight="bold" font-family="'Helvetica Neue', Helvetica, Arial-Unicode, Arial, Sans-serif">from the Noun Project</text></svg>